<svg width="20" height="21" viewBox="0 0 20 21" fill="none" xmlns="http://www.w3.org/2000/svg">
<g clip-path="url(#clip0_98_601)">
<path d="M18.3438 3.22565H13.4894C12.678 3.2251 11.8905 3.50094 11.2568 4.00774C10.6231 4.51454 10.181 5.22207 10.0031 6.01377C9.8249 5.22228 9.3826 4.51501 8.749 4.00829C8.11539 3.50156 7.3282 3.22555 6.51689 3.22565H1.66626C1.22423 3.22581 0.800353 3.40148 0.487789 3.71405C0.175225 4.02661 -0.000444703 4.45049 -0.000610352 4.89252V13.4275C-0.000444703 13.8696 0.175225 14.2934 0.487789 14.606C0.800353 14.9186 1.22423 15.0942 1.66626 15.0944H4.78064C8.32939 15.0944 9.38814 15.9413 9.89501 17.6988C9.91939 17.7963 10.0756 17.7963 10.1031 17.6988C10.6138 15.9419 11.6725 15.0944 15.2175 15.0944H18.3319C18.7739 15.0942 19.1978 14.9186 19.5104 14.606C19.8229 14.2934 19.9986 13.8696 19.9988 13.4275V4.89627C19.9988 4.45573 19.8247 4.03303 19.5145 3.72024C19.2043 3.40745 18.783 3.2299 18.3425 3.22627L18.3438 3.22565ZM8.40252 12.4406C8.40268 12.4566 8.39966 12.4725 8.39363 12.4872C8.38759 12.502 8.37867 12.5155 8.36737 12.5268C8.35608 12.538 8.34265 12.547 8.32786 12.553C8.31308 12.559 8.29723 12.5621 8.28127 12.5619H2.71501C2.69907 12.562 2.68326 12.5589 2.66852 12.5528C2.65377 12.5468 2.64037 12.5378 2.62909 12.5266C2.61782 12.5153 2.60889 12.5019 2.60283 12.4871C2.59676 12.4724 2.59368 12.4566 2.59376 12.4406V11.6456C2.59376 11.58 2.64564 11.5244 2.71501 11.5244H8.28439C8.35001 11.5244 8.40564 11.5763 8.40564 11.6456V12.4406H8.40252ZM8.40252 10.3263C8.4026 10.3422 8.39952 10.358 8.39345 10.3728C8.38739 10.3875 8.37846 10.4009 8.36719 10.4122C8.35591 10.4235 8.34251 10.4324 8.32776 10.4385C8.31301 10.4445 8.29721 10.4476 8.28127 10.4475H2.71501C2.69907 10.4476 2.68326 10.4445 2.66852 10.4385C2.65377 10.4324 2.64037 10.4235 2.62909 10.4122C2.61782 10.4009 2.60889 10.3875 2.60283 10.3728C2.59676 10.358 2.59368 10.3422 2.59376 10.3263V9.53127C2.59376 9.46502 2.64564 9.41002 2.71501 9.41002H8.28439C8.35001 9.41002 8.40564 9.4619 8.40564 9.53127V10.3263H8.40252ZM8.40252 8.2119C8.4026 8.22784 8.39952 8.24365 8.39345 8.2584C8.38739 8.27314 8.37846 8.28654 8.36719 8.29782C8.35591 8.30909 8.34251 8.31802 8.32776 8.32409C8.31301 8.33015 8.29721 8.33323 8.28127 8.33315H2.71501C2.69907 8.33323 2.68326 8.33015 2.66852 8.32409C2.65377 8.31802 2.64037 8.30909 2.62909 8.29782C2.61782 8.28654 2.60889 8.27314 2.60283 8.2584C2.59676 8.24365 2.59368 8.22784 2.59376 8.2119V7.4169C2.59376 7.35127 2.64564 7.29565 2.71501 7.29565H8.28439C8.35001 7.29565 8.40564 7.34752 8.40564 7.4169V8.2119H8.40252ZM17.4063 12.4375C17.4063 12.4535 17.4033 12.4693 17.3972 12.484C17.3911 12.4988 17.3822 12.5122 17.3709 12.5234C17.3597 12.5347 17.3463 12.5436 17.3315 12.5497C17.3168 12.5558 17.301 12.5589 17.285 12.5588H11.7188C11.7028 12.5589 11.687 12.5558 11.6723 12.5497C11.6575 12.5436 11.6441 12.5347 11.6328 12.5234C11.6216 12.5122 11.6126 12.4988 11.6066 12.484C11.6005 12.4693 11.5974 12.4535 11.5975 12.4375V11.6425C11.5975 11.5769 11.6494 11.5213 11.7188 11.5213H17.2881C17.3544 11.5213 17.4094 11.5731 17.4094 11.6425V12.4375H17.4063ZM17.4063 10.3231C17.4064 10.3391 17.4034 10.355 17.3974 10.3697C17.3913 10.3845 17.3824 10.398 17.3711 10.4093C17.3598 10.4205 17.3464 10.4295 17.3316 10.4355C17.3168 10.4415 17.301 10.4446 17.285 10.4444H11.7188C11.7028 10.4445 11.687 10.4414 11.6723 10.4353C11.6575 10.4293 11.6441 10.4203 11.6328 10.4091C11.6216 10.3978 11.6126 10.3844 11.6066 10.3696C11.6005 10.3549 11.5974 10.3391 11.5975 10.3231V9.52815C11.5975 9.46252 11.6494 9.4069 11.7188 9.4069H17.2881C17.3544 9.4069 17.4094 9.45877 17.4094 9.52815V10.3231H17.4063ZM17.4063 8.20815C17.4063 8.22409 17.4033 8.2399 17.3972 8.25465C17.3911 8.26939 17.3822 8.28279 17.3709 8.29407C17.3597 8.30534 17.3463 8.31427 17.3315 8.32034C17.3168 8.3264 17.301 8.32948 17.285 8.3294H11.7188C11.7028 8.32948 11.687 8.3264 11.6723 8.32034C11.6575 8.31427 11.6441 8.30534 11.6328 8.29407C11.6216 8.28279 11.6126 8.26939 11.6066 8.25465C11.6005 8.2399 11.5974 8.22409 11.5975 8.20815V7.41627C11.5975 7.35065 11.6494 7.29502 11.7188 7.29502H17.2881C17.3544 7.29502 17.4094 7.3469 17.4094 7.41627V8.20815H17.4063Z" fill="white"/>
</g>
<defs>
<clipPath id="clip0_98_601">
<rect width="20" height="20" fill="white" transform="translate(0 0.5)"/>
</clipPath>
</defs>
</svg>
